<?xml version="1.0" encoding="utf-8"?>
<!-- Generator: Adobe Illustrator 22.0.0, SVG Export Plug-In . SVG Version: 6.00 Build 0)  -->
<svg version="1.1" id="图层_1" xmlns="http://www.w3.org/2000/svg" xmlns:xlink="http://www.w3.org/1999/xlink" x="0px" y="0px"
	 viewBox="0 0 1024 1024" style="enable-background:new 0 0 1024 1024;" xml:space="preserve">
<style type="text/css">
	.st0{fill:#CCDAFE;}
	.st1{fill:#A8BEEF;}
	.st2{fill:url(#SVGID_1_);}
	.st3{fill:url(#SVGID_2_);}
	.st4{fill:#3B6CE4;}
	.st5{fill:url(#SVGID_3_);}
	.st6{fill:#FF7F2A;}
	.st7{fill:url(#SVGID_4_);}
	.st8{fill:#144DC1;}
	.st9{fill:url(#SVGID_5_);}
	.st10{fill:url(#SVGID_6_);}
	.st11{fill:#353535;}
	.st12{fill:#FFD7CD;}
	.st13{fill:#8D4344;}
	.st14{fill:#274DA0;}
	.st15{fill:#DBEEFE;}
</style>
<g>
	<g>
		<g>
			<polygon class="st0" points="163.1,718.2 163.1,512.4 245.5,512.4 245.5,364.2 386.1,364.2 386.1,718.2 			"/>
			<g>
				<rect x="259.5" y="388.7" class="st1" width="28.8" height="23"/>
				<rect x="302.7" y="388.7" class="st1" width="28.8" height="23"/>
				<rect x="345.8" y="388.7" class="st1" width="28.8" height="23"/>
				<rect x="259.5" y="424.6" class="st1" width="28.8" height="23"/>
				<rect x="302.7" y="424.6" class="st1" width="28.8" height="23"/>
				<rect x="345.8" y="424.6" class="st1" width="28.8" height="23"/>
				<rect x="259.5" y="460.6" class="st1" width="28.8" height="23"/>
				<rect x="302.7" y="460.6" class="st1" width="28.8" height="23"/>
				<rect x="345.8" y="460.6" class="st1" width="28.8" height="23"/>
				<rect x="259.5" y="496.6" class="st1" width="28.8" height="23"/>
				<rect x="302.7" y="496.6" class="st1" width="28.8" height="23"/>
				<rect x="345.8" y="496.6" class="st1" width="28.8" height="23"/>
				<rect x="259.5" y="532.6" class="st1" width="28.8" height="23"/>
				<rect x="216.3" y="532.6" class="st1" width="28.8" height="23"/>
				<rect x="173.1" y="532.6" class="st1" width="28.8" height="23"/>
				<rect x="302.7" y="532.6" class="st1" width="28.8" height="23"/>
				<rect x="345.8" y="532.6" class="st1" width="28.8" height="23"/>
				<rect x="259.5" y="568.6" class="st1" width="28.8" height="23"/>
				<rect x="216.3" y="568.6" class="st1" width="28.8" height="23"/>
				<rect x="173.1" y="568.6" class="st1" width="28.8" height="23"/>
				<rect x="302.7" y="568.6" class="st1" width="28.8" height="23"/>
				<rect x="345.8" y="568.6" class="st1" width="28.8" height="23"/>
				<rect x="259.5" y="604.5" class="st1" width="28.8" height="23"/>
				<rect x="216.3" y="604.5" class="st1" width="28.8" height="23"/>
				<rect x="173.1" y="604.5" class="st1" width="28.8" height="23"/>
				<rect x="302.7" y="604.5" class="st1" width="28.8" height="23"/>
				<rect x="345.8" y="604.5" class="st1" width="28.8" height="23"/>
				<rect x="259.5" y="640.5" class="st1" width="28.8" height="23"/>
				<rect x="216.3" y="640.5" class="st1" width="28.8" height="23"/>
				<rect x="173.1" y="640.5" class="st1" width="28.8" height="23"/>
				<rect x="302.7" y="640.5" class="st1" width="28.8" height="23"/>
				<rect x="345.8" y="640.5" class="st1" width="28.8" height="23"/>
			</g>
		</g>
		<g>
			<polygon class="st0" points="635.1,715.3 635.1,585.8 698.4,585.8 698.4,436.2 794.8,436.2 794.8,506.7 851,506.7 851,715.3 			
				"/>
			<g>
				<rect x="712.8" y="454.9" class="st1" width="28.8" height="23"/>
				<rect x="753.1" y="454.9" class="st1" width="28.8" height="23"/>
				<rect x="712.8" y="598.8" class="st1" width="28.8" height="23"/>
				<rect x="672.5" y="598.8" class="st1" width="28.8" height="23"/>
				<rect x="672.5" y="634.8" class="st1" width="28.8" height="23"/>
				<rect x="753.1" y="598.8" class="st1" width="28.8" height="23"/>
				<rect x="712.8" y="490.8" class="st1" width="28.8" height="23"/>
				<rect x="753.1" y="490.8" class="st1" width="28.8" height="23"/>
				<rect x="712.8" y="526.8" class="st1" width="28.8" height="23"/>
				<rect x="753.1" y="526.8" class="st1" width="28.8" height="23"/>
				<rect x="793.4" y="526.8" class="st1" width="28.8" height="23"/>
				<rect x="793.4" y="562.8" class="st1" width="28.8" height="23"/>
				<rect x="793.4" y="598.8" class="st1" width="28.8" height="23"/>
				<rect x="793.4" y="634.8" class="st1" width="28.8" height="23"/>
				<rect x="712.8" y="562.8" class="st1" width="28.8" height="23"/>
				<rect x="753.1" y="562.8" class="st1" width="28.8" height="23"/>
				<rect x="712.8" y="634.8" class="st1" width="28.8" height="23"/>
				<rect x="753.1" y="634.8" class="st1" width="28.8" height="23"/>
			</g>
		</g>
		<g>
			<g>
				<linearGradient id="SVGID_1_" gradientUnits="userSpaceOnUse" x1="503.8444" y1="623.3421" x2="512.2015" y2="755.0411">
					<stop  offset="0" style="stop-color:#91B3FF"/>
					<stop  offset="0.4022" style="stop-color:#6791F2"/>
					<stop  offset="0.7939" style="stop-color:#3B6CE4"/>
				</linearGradient>
				<path class="st2" d="M92.6,752.8c0,0,164.1-131,411.6-131c233.1,0,427.4,131,427.4,131s-65.5-24.7-204.4-27.3
					c-76.3-1.4-132.4,24.5-225.9,24.5c-87.8,0-149.8-12.1-243.2-15.8C171.5,730.6,92.6,752.8,92.6,752.8z"/>
				<linearGradient id="SVGID_2_" gradientUnits="userSpaceOnUse" x1="519.5494" y1="620.3573" x2="523.5323" y2="683.1246">
					<stop  offset="0" style="stop-color:#91B3FF"/>
					<stop  offset="0.2484" style="stop-color:#6795EC"/>
					<stop  offset="0.7939" style="stop-color:#004CBF"/>
				</linearGradient>
				<path class="st3" d="M429.2,625.8c-5.5,3.8-8.6,8.1-8.6,12.5c0,17.1,44.8,30.9,100,30.9c55.2,0,100-13.9,100-30.9
					c0-2.2-0.8-4.4-2.3-6.6c-36.5-6.2-74.8-10-114.3-10C478.2,621.8,453.2,623.3,429.2,625.8z"/>
				
					<ellipse transform="matrix(0.9596 -0.2814 0.2814 0.9596 -180.9633 124.2588)" class="st4" cx="342.2" cy="692.3" rx="46.8" ry="15.8"/>
				
					<ellipse transform="matrix(0.2923 -0.9563 0.9563 0.2923 -286.5499 1039.176)" class="st4" cx="558.8" cy="713.2" rx="12.2" ry="30.2"/>
			</g>
			<g>
				<g>
					<linearGradient id="SVGID_3_" gradientUnits="userSpaceOnUse" x1="744.0242" y1="651.1275" x2="707.0714" y2="600.8423">
						<stop  offset="0" style="stop-color:#EFBB81"/>
						<stop  offset="0.5011" style="stop-color:#F79E57"/>
						<stop  offset="1" style="stop-color:#FF7F2A"/>
					</linearGradient>
					<path class="st5" d="M749.8,629.8c4.9-5.1,7.4-11.8,6.4-18.6c-1.2-8.2-7.1-14.6-15.2-17.8c0.2-1.8,0.2-3.7-0.2-5.6
						c-1.9-9.1-10.8-15-19.8-13.1c-9,1.9-14.8,10.8-12.9,19.9c0.2,1.2,0.6,2.3,1.1,3.3c-6.9,5.4-10.9,13.4-9.7,21.6
						c0.6,3.8,2.1,7.2,4.5,10.1c-5.2,3.4-8.4,8-8.4,13c0,10.5,14,19,31.2,19c17.2,0,31.2-8.5,31.2-19
						C757.9,637.7,754.9,633.2,749.8,629.8z"/>
					<g>
						<g>
							<path class="st6" d="M726.1,688.1L726.1,688.1c-0.9-0.5-1.5-2.5-1.2-4.3c4.4-35.6,1.3-54.8-0.2-61.3
								c-0.4-1.6-0.1-3.4,0.6-4.4l0,0c0.9-1.3,2.1-0.7,2.6,1.4c1.8,8,5.1,28.9,0.4,66.1C728.1,687.5,727.1,688.7,726.1,688.1z"/>
						</g>
					</g>
				</g>
				<g>
					<linearGradient id="SVGID_4_" gradientUnits="userSpaceOnUse" x1="802.3545" y1="688.6566" x2="781.2715" y2="659.967">
						<stop  offset="0" style="stop-color:#EFBB81"/>
						<stop  offset="0.5011" style="stop-color:#F79E57"/>
						<stop  offset="1" style="stop-color:#FF7F2A"/>
					</linearGradient>
					<path class="st7" d="M805.7,676.5c2.8-2.9,4.2-6.7,3.7-10.6c-0.7-4.7-4.1-8.3-8.7-10.2c0.1-1,0.1-2.1-0.1-3.2
						c-1.1-5.2-6.2-8.5-11.3-7.5c-5.2,1.1-8.4,6.2-7.3,11.4c0.1,0.7,0.3,1.3,0.6,1.9c-4,3.1-6.2,7.6-5.5,12.3
						c0.3,2.2,1.2,4.1,2.6,5.8c-3,1.9-4.8,4.5-4.8,7.4c0,6,8,10.8,17.8,10.8s17.8-4.9,17.8-10.8C810.3,681,808.5,678.4,805.7,676.5z
						"/>
					<g>
						<g>
							<path class="st6" d="M792.1,709.8L792.1,709.8c-0.5-0.3-0.8-1.4-0.7-2.5c2.5-20.3,0.8-31.2-0.1-35c-0.2-0.9-0.1-1.9,0.3-2.5
								l0,0c0.5-0.8,1.2-0.4,1.5,0.8c1,4.5,2.9,16.5,0.2,37.7C793.2,709.4,792.7,710.1,792.1,709.8z"/>
						</g>
					</g>
				</g>
			</g>
		</g>
	</g>
	<path class="st8" d="M488.1,300.5L307.6,595.6c-9.9,16.2,1.7,36.9,20.7,36.9h361.1c19,0,30.6-20.8,20.7-36.9L529.6,300.5
		C520.1,285,497.6,285,488.1,300.5z"/>
	<path class="st4" d="M487.1,286.5L306.6,581.6c-9.9,16.2,1.7,36.9,20.7,36.9h361.1c19,0,30.6-20.8,20.7-36.9L528.6,286.5
		C519.1,271,496.6,271,487.1,286.5z"/>
	<g>
		<path class="st6" d="M507.9,356.1L507.9,356.1c-12,0-21.7,10-21.3,22l4.7,139.5c0.3,8.9,7.6,16,16.5,16h0c8.9,0,16.2-7.1,16.5-16
			l4.7-139.5C529.5,366.1,519.9,356.1,507.9,356.1z"/>
		<circle class="st6" cx="507.9" cy="558.1" r="16"/>
	</g>
	<g>
		<linearGradient id="SVGID_5_" gradientUnits="userSpaceOnUse" x1="548.4125" y1="508.3109" x2="469.0214" y2="370.8014">
			<stop  offset="0" style="stop-color:#EFBB81"/>
			<stop  offset="0.5011" style="stop-color:#F79E57"/>
			<stop  offset="1" style="stop-color:#FF7F2A"/>
		</linearGradient>
		<path class="st9" d="M507.9,351.7L507.9,351.7c-12,0-21.7,10-21.3,22l4.7,139.5c0.3,8.9,7.6,16,16.5,16h0c8.9,0,16.2-7.1,16.5-16
			l4.7-139.5C529.5,361.6,519.9,351.7,507.9,351.7z"/>
		<linearGradient id="SVGID_6_" gradientUnits="userSpaceOnUse" x1="515.8549" y1="567.4883" x2="499.8522" y2="539.7709">
			<stop  offset="0" style="stop-color:#EFBB81"/>
			<stop  offset="0.5011" style="stop-color:#F79E57"/>
			<stop  offset="1" style="stop-color:#FF7F2A"/>
		</linearGradient>
		<circle class="st10" cx="507.9" cy="553.6" r="16"/>
	</g>
	<g>
		<path class="st11" d="M368.2,712.5l12.1-6.5l0.2-5.8l-5.7-1.3c0,0-10.9,6.8-11.4,8.7c-0.6,1.8-1.4,4.5,0,5.4
			S367.2,713,368.2,712.5z"/>
		<path class="st11" d="M421.2,703.9l12.6,6.2c0,0,2,0.8,3.7-0.7c1.7-1.6,0.7-4.1-0.8-5.5c-1.6-1.4-11.3-6.5-11.3-6.5l-4.4,2.3
			L421.2,703.9z"/>
		<polygon class="st12" points="374.5,670 375.7,698.2 367.4,704.7 370.9,708.5 380.4,703 382.4,670 		"/>
		<path class="st12" d="M413.4,670.7l7.8,30.2l8.6,4.4c0,0,1.6-3.8,2.8-3.5l-7.3-4.4l-4.9-29.2L413.4,670.7z"/>
		<path class="st13" d="M388.8,487.7c0,0,5.6-4,9.8-3.4c4.1,0.6,8.3,2.3,10.4,6.2c2.1,4,1.1,11.6,0,16.3c-1.1,4.7-2.8,18.3-2.3,30
			c0.6,11.7,2.3,14.1-2.4,17.7c-4.7,3.6-13.2,7.2-23.5,3.8c-10.4-3.4-14-5.8-14.3-13c-0.3-7.2,11.5-26.7,12.6-35.1
			C380.2,501.8,382.9,490.7,388.8,487.7z"/>
		<path class="st12" d="M457.5,530.6c-3.4,1-5.1,1.6-7.1,1.8c-2,0.2-0.6-0.3,0-1.2c0.6-0.8,1.2-3-0.3-1.9c-2.7,2-2.8,1.9-3.8,2.3
			c-1.6,0.6-3-1.1-5.2,0.4c-1.7,1.2-0.7,2.8-3.7,5.7c-3.1,3-13.5,13.9-14.9,13.3c-3.8-1.7-16.9-23-16.9-23s-0.7-1.5-6.1-2.5
			c-3.3-0.6-4.9-2.2-5.1-3.1c-0.4-2.4,0.2-5.1,0.9-7c2.9-0.2,5.8-2.1,7.9-5.1c1,0.3,2.3-0.2,3.2-1.3c1.1-1.3,1.1-3.1,0.2-3.8
			c-0.2-0.2-0.5-0.3-0.8-0.3c0-0.1,0.1-0.3,0.1-0.4c1.8-7.3-0.8-14.2-6-15.5c-5.1-1.3-10.8,3.5-12.6,10.8c0,0.2-0.1,0.3-0.1,0.4
			c-0.1,0-0.1,0-0.2,0c-1.2,0-2.3,1.4-2.3,3.1c0,1.6,0.9,3,2.1,3.1c0.3,2.7,1.4,5.1,2.9,6.8c-0.9,2.8-2.4,6.5-4.2,7.7
			c-3,2.1-6,2.7-6,2.7s-4.3-1.2-7,0.9c-2.6,2.2-20.7,20.1-21.6,20.1s-12-14.9-12.1-16.4c-0.1-1.5-1.3-6.7-2.7-7.4
			c-2.8-1.3-3.6-0.2-4.7-1.6c-1.2-1.6-2.7-2.8-3.2-2c-0.5,0.8,1.5,3.4,1.5,3.4s-5.1-2.1-8.1-5.8c-0.3-0.4-1.9,0.5-0.8,2.6
			c1,2.2,6.8,7.3,13.2,11c5.9,3.5,9.1,20.9,10,22.7c1.3,2.5,3.4,4.9,6.4,2.8c3-2.1,25.6-18.1,25.6-18.1l24-0.1l18.5,23.7
			c0,0,2.2,2.4,4.2,0.8c1.9-1.5,9.4-12.3,15.4-19.3c1.6-1.9,3.9-3.1,6.3-3.3c2.2-0.2,4.3,0,5.5-0.5c2.1-0.8,7.8-2.9,8.8-4.6
			C459.6,530.7,458.9,530.2,457.5,530.6z"/>
		<path class="st14" d="M369.2,574.1c0,0-6.5,11-6.8,20.2c-0.3,9.2,3.4,21.7,5.4,27.7c2,5.9,4,8.2,3.4,16
			c-0.6,7.8-1.2,18.6,0.1,29.1c1.3,10.4,1.7,15.7,1.7,15.7l11.2-3.7l1-77.1l4.5-0.7c0,0,13.6,43.6,14.2,46.3
			c0.6,2.7,8.9,31.5,8.9,31.5s6.1,1,10.3-4.8c4.2-5.8-9.2-30.4-9.9-35.6c-0.7-5.2-2.8-53.4-9-61.3c-6.2-7.9-5.1-5.8-5.1-5.8
			L369.2,574.1z"/>
		<path class="st15" d="M369.3,541l-7.1-8.3c-0.3-0.3-0.3-0.8,0-1.1c1.6-1.7,6.2-6.6,9.3-8.7c0.9-0.6,2-1,3.1-1h4.9
			c1,0,1.9,0.3,2.7,0.9l4.8,3.6c1.8,1.4,4.2,1.5,6.2,0.4l3.1-1.8c1.3-0.8,2.9-1,4.4-0.7c2.3,0.4,4.7,0.8,6.3,2.7
			c1.4,1.7,5.8,8.2,7.2,10.1c0.2,0.3,0.1,0.7-0.2,0.9l-9.1,6.2c-0.3,0.2-0.7,0.1-0.9-0.1l-2.3-2.9c-0.2-0.2-0.5-0.1-0.5,0.1
			c-0.2,2.8-0.8,13.2,0.2,17.8c1.1,5.4,4.7,17.1,4.7,17.1s-7,3.5-11.9,4.9c-3.2,1-12,0.6-17.8-1.3c-5.8-1.8-11.9-3-11.9-3
			s8.5-15.7,9.4-22.9c0.6-4.9,1-12.2,1.1-15.3c0-0.5-0.6-0.8-1-0.5l-3.8,2.9C370.1,541.4,369.6,541.3,369.3,541z"/>
		<path class="st13" d="M387.1,496.8c0,0,9.8-1,13.4-8.2c0,0-1.8-3.3-6.1-1.4C390.1,489.1,387.1,496.8,387.1,496.8z"/>
		<path class="st13" d="M398,490.6c0,0,2,8,9.1,13.1l1.3-7.7l-7.3-9.7L398,490.6z"/>
	</g>
</g>
</svg>
